HIERARCHY
ROOT mixamorig:Hips
{
	OFFSET 0.000000 201.639420 0.000000
	CHANNELS 6 Xposition Yposition Zposition Xrotation Yrotation Zrotation
	JOINT mixamorig:Spine
	{
		OFFSET 0.006200 19.524994 -2.481800
		CHANNELS 3 Xrotation Yrotation Zrotation
		JOINT mixamorig:Spine1
		{
			OFFSET -0.000900 22.835007 -2.825400
			CHANNELS 3 Xrotation Yrotation Zrotation
			JOINT mixamorig:Spine2
			{
				OFFSET -0.020600 26.552490 -3.193300
				CHANNELS 3 Xrotation Yrotation Zrotation
				JOINT mixamorig:Neck
				{
					OFFSET -0.060000 30.701813 1.352200
					CHANNELS 3 Xrotation Yrotation Zrotation
					JOINT mixamorig:Head
					{
						OFFSET -0.087200 22.547607 3.670900
						CHANNELS 3 Xrotation Yrotation Zrotation
						JOINT mixamorig:HeadTop_End
						{
							OFFSET -0.830600 40.355194 7.893500
							CHANNELS 3 Xrotation Yrotation Zrotation
							End Site
							{
								OFFSET 0.000000 30.592346 0.000000
							}
						}
						JOINT mixamorig:RightEye
						{
							OFFSET -6.302100 18.118591 16.197100
							CHANNELS 3 Xrotation Yrotation Zrotation
							End Site
							{
								OFFSET 0.000000 30.592346 0.000000
							}
						}
						JOINT mixamorig:LeftEye
						{
							OFFSET 6.741500 18.382690 16.401899
							CHANNELS 3 Xrotation Yrotation Zrotation
							End Site
							{
								OFFSET 0.000000 30.592346 0.000000
							}
						}
					}
				}
				JOINT mixamorig:LeftShoulder
				{
					OFFSET 11.924900 18.230499 1.425400
					CHANNELS 3 Xrotation Yrotation Zrotation
					JOINT mixamorig:LeftArm
					{
						OFFSET 25.435989 -0.697632 -5.229300
						CHANNELS 3 Xrotation Yrotation Zrotation
						JOINT mixamorig:LeftForeArm
						{
							OFFSET 54.684776 0.000000 0.000000
							CHANNELS 3 Xrotation Yrotation Zrotation
							JOINT mixamorig:LeftHand
							{
								OFFSET 55.098175 0.000000 0.000000
								CHANNELS 3 Xrotation Yrotation Zrotation
								JOINT mixamorig:LeftHandMiddle1
								{
									OFFSET 23.369751 0.000000 0.000000
									CHANNELS 3 Xrotation Yrotation Zrotation
									JOINT mixamorig:LeftHandMiddle2
									{
										OFFSET 6.378677 0.000000 0.000000
										CHANNELS 3 Xrotation Yrotation Zrotation
										JOINT mixamorig:LeftHandMiddle3
										{
											OFFSET 6.148331 0.000000 0.000000
											CHANNELS 3 Xrotation Yrotation Zrotation
											JOINT mixamorig:LeftHandMiddle4
											{
												OFFSET 6.582504 0.000000 0.000000
												CHANNELS 3 Xrotation Yrotation Zrotation
												End Site
												{
													OFFSET -1.168900 6.395691 1.028606
												}
											}
										}
									}
								}
								JOINT mixamorig:LeftHandThumb1
								{
									OFFSET 7.235672 -3.848206 5.434273
									CHANNELS 3 Xrotation Yrotation Zrotation
									JOINT mixamorig:LeftHandThumb2
									{
										OFFSET 6.568451 -3.792297 3.792300
										CHANNELS 3 Xrotation Yrotation Zrotation
										JOINT mixamorig:LeftHandThumb3
										{
											OFFSET 6.063080 -3.500519 3.500518
											CHANNELS 3 Xrotation Yrotation Zrotation
											JOINT mixamorig:LeftHandThumb4
											{
												OFFSET 4.793182 -2.767334 2.767349
												CHANNELS 3 Xrotation Yrotation Zrotation
												End Site
												{
													OFFSET 0.101639 6.054260 1.275483
												}
											}
										}
									}
								}
								JOINT mixamorig:LeftHandIndex1
								{
									OFFSET 23.101074 -0.309540 4.992809
									CHANNELS 3 Xrotation Yrotation Zrotation
									JOINT mixamorig:LeftHandIndex2
									{
										OFFSET 6.226883 0.000000 0.000000
										CHANNELS 3 Xrotation Yrotation Zrotation
										JOINT mixamorig:LeftHandIndex3
										{
											OFFSET 6.094330 0.000000 0.000000
											CHANNELS 3 Xrotation Yrotation Zrotation
											JOINT mixamorig:LeftHandIndex4
											{
												OFFSET 5.482605 0.000000 0.000000
												CHANNELS 3 Xrotation Yrotation Zrotation
												End Site
												{
													OFFSET -1.427902 5.233032 0.797164
												}
											}
										}
									}
								}
								JOINT mixamorig:LeftHandRing1
								{
									OFFSET 22.299240 0.021149 -3.964172
									CHANNELS 3 Xrotation Yrotation Zrotation
									JOINT mixamorig:LeftHandRing2
									{
										OFFSET 6.321869 0.000000 0.000000
										CHANNELS 3 Xrotation Yrotation Zrotation
										JOINT mixamorig:LeftHandRing3
										{
											OFFSET 5.899796 0.000000 0.000000
											CHANNELS 3 Xrotation Yrotation Zrotation
											JOINT mixamorig:LeftHandRing4
											{
												OFFSET 6.517899 0.000000 0.000000
												CHANNELS 3 Xrotation Yrotation Zrotation
												End Site
												{
													OFFSET -1.637299 6.232208 0.980890
												}
											}
										}
									}
								}
								JOINT mixamorig:LeftHandPinky1
								{
									OFFSET 20.463791 -0.302338 -8.562233
									CHANNELS 3 Xrotation Yrotation Zrotation
									JOINT mixamorig:LeftHandPinky2
									{
										OFFSET 6.908646 0.000000 0.000000
										CHANNELS 3 Xrotation Yrotation Zrotation
										JOINT mixamorig:LeftHandPinky3
										{
											OFFSET 4.622849 0.000000 0.000000
											CHANNELS 3 Xrotation Yrotation Zrotation
											JOINT mixamorig:LeftHandPinky4
											{
												OFFSET 5.216080 0.000000 0.000000
												CHANNELS 3 Xrotation Yrotation Zrotation
												End Site
												{
													OFFSET -0.606308 5.116241 0.814926
												}
											}
										}
									}
								}
							}
						}
					}
				}
				JOINT mixamorig:RightShoulder
				{
					OFFSET -12.001300 18.284088 1.348900
					CHANNELS 3 Xrotation Yrotation Zrotation
					JOINT mixamorig:RightArm
					{
						OFFSET -25.308500 -0.751312 -5.164599
						CHANNELS 3 Xrotation Yrotation Zrotation
						JOINT mixamorig:RightForeArm
						{
							OFFSET -54.684429 0.000000 0.000000
							CHANNELS 3 Xrotation Yrotation Zrotation
							JOINT mixamorig:RightHand
							{
								OFFSET -55.150291 0.000000 0.000000
								CHANNELS 3 Xrotation Yrotation Zrotation
								JOINT mixamorig:RightHandMiddle1
								{
									OFFSET -23.317566 0.000000 0.000000
									CHANNELS 3 Xrotation Yrotation Zrotation
									JOINT mixamorig:RightHandMiddle2
									{
										OFFSET -6.378403 0.000000 0.000000
										CHANNELS 3 Xrotation Yrotation Zrotation
										JOINT mixamorig:RightHandMiddle3
										{
											OFFSET -6.148193 0.000000 0.000000
											CHANNELS 3 Xrotation Yrotation Zrotation
											JOINT mixamorig:RightHandMiddle4
											{
												OFFSET -6.583389 0.000000 0.000000
												CHANNELS 3 Xrotation Yrotation Zrotation
												End Site
												{
													OFFSET 1.171692 6.395905 1.029786
												}
											}
										}
									}
								}
								JOINT mixamorig:RightHandThumb1
								{
									OFFSET -7.190521 -3.860474 5.435846
									CHANNELS 3 Xrotation Yrotation Zrotation
									JOINT mixamorig:RightHandThumb2
									{
										OFFSET -6.567429 -3.791718 3.791708
										CHANNELS 3 Xrotation Yrotation Zrotation
										JOINT mixamorig:RightHandThumb3
										{
											OFFSET -6.062469 -3.500153 3.500166
											CHANNELS 3 Xrotation Yrotation Zrotation
											JOINT mixamorig:RightHandThumb4
											{
												OFFSET -4.792618 -2.767029 2.767022
												CHANNELS 3 Xrotation Yrotation Zrotation
												End Site
												{
													OFFSET -0.100327 6.053253 1.276754
												}
											}
										}
									}
								}
								JOINT mixamorig:RightHandIndex1
								{
									OFFSET -23.048981 -0.310791 4.992554
									CHANNELS 3 Xrotation Yrotation Zrotation
									JOINT mixamorig:RightHandIndex2
									{
										OFFSET -6.227539 0.000000 0.000000
										CHANNELS 3 Xrotation Yrotation Zrotation
										JOINT mixamorig:RightHandIndex3
										{
											OFFSET -6.095047 0.000000 0.000000
											CHANNELS 3 Xrotation Yrotation Zrotation
											JOINT mixamorig:RightHandIndex4
											{
												OFFSET -5.484772 0.000000 0.000000
												CHANNELS 3 Xrotation Yrotation Zrotation
												End Site
												{
													OFFSET 1.420593 5.237305 0.797056
												}
											}
										}
									}
								}
								JOINT mixamorig:RightHandRing1
								{
									OFFSET -22.246323 0.020569 -3.963762
									CHANNELS 3 Xrotation Yrotation Zrotation
									JOINT mixamorig:RightHandRing2
									{
										OFFSET -6.322128 0.000000 0.000000
										CHANNELS 3 Xrotation Yrotation Zrotation
										JOINT mixamorig:RightHandRing3
										{
											OFFSET -5.900024 0.000000 0.000000
											CHANNELS 3 Xrotation Yrotation Zrotation
											JOINT mixamorig:RightHandRing4
											{
												OFFSET -6.518356 0.000000 0.000000
												CHANNELS 3 Xrotation Yrotation Zrotation
												End Site
												{
													OFFSET 1.636398 6.232697 0.982186
												}
											}
										}
									}
								}
								JOINT mixamorig:RightHandPinky1
								{
									OFFSET -20.411011 -0.303314 -8.561701
									CHANNELS 3 Xrotation Yrotation Zrotation
									JOINT mixamorig:RightHandPinky2
									{
										OFFSET -6.907349 0.000000 0.000000
										CHANNELS 3 Xrotation Yrotation Zrotation
										JOINT mixamorig:RightHandPinky3
										{
											OFFSET -4.623840 0.000000 0.000000
											CHANNELS 3 Xrotation Yrotation Zrotation
											JOINT mixamorig:RightHandPinky4
											{
												OFFSET -5.218353 0.000000 0.000000
												CHANNELS 3 Xrotation Yrotation Zrotation
												End Site
												{
													OFFSET 0.602097 5.118835 0.816273
												}
											}
										}
									}
								}
							}
						}
					}
				}
			}
		}
	}
	JOINT mixamorig:LeftUpLeg
	{
		OFFSET 18.168400 -13.561905 -0.039000
		CHANNELS 3 Xrotation Yrotation Zrotation
		JOINT mixamorig:LeftLeg
		{
			OFFSET 0.577358 -80.825211 -3.695000
			CHANNELS 3 Xrotation Yrotation Zrotation
			JOINT mixamorig:LeftFoot
			{
				OFFSET -0.577356 -83.370262 -6.520700
				CHANNELS 3 Xrotation Yrotation Zrotation
				JOINT mixamorig:LeftToeBase
				{
					OFFSET 0.750401 -20.798306 25.135401
					CHANNELS 3 Xrotation Yrotation Zrotation
					JOINT mixamorig:LeftToe_End
					{
						OFFSET -0.000500 0.001200 19.917799
						CHANNELS 3 Xrotation Yrotation Zrotation
						End Site
						{
							OFFSET 0.000000 19.917805 0.000000
						}
					}
				}
			}
		}
	}
	JOINT mixamorig:RightUpLeg
	{
		OFFSET -18.162500 -13.585098 -0.041000
		CHANNELS 3 Xrotation Yrotation Zrotation
		JOINT mixamorig:RightLeg
		{
			OFFSET -0.595024 -80.945297 -3.631900
			CHANNELS 3 Xrotation Yrotation Zrotation
			JOINT mixamorig:RightFoot
			{
				OFFSET 0.595024 -83.218193 -6.561200
				CHANNELS 3 Xrotation Yrotation Zrotation
				JOINT mixamorig:RightToeBase
				{
					OFFSET -0.753601 -20.807106 25.115000
					CHANNELS 3 Xrotation Yrotation Zrotation
					JOINT mixamorig:RightToe_End
					{
						OFFSET 0.000299 0.001700 19.918200
						CHANNELS 3 Xrotation Yrotation Zrotation
						End Site
						{
							OFFSET 0.000000 19.918203 0.000000
						}
					}
				}
			}
		}
	}
}
MOTION
Frames: 4
Frame Time: 0.033333
-0.038121 196.175262 0.742573 5.804669 0.281817 0.902111 0.261415 -0.549807 0.074905 0.539452 -1.111989 -0.180907 0.539874 -1.110929 -0.177625 2.580045 3.034309 -3.970159 6.945285 1.338540 6.076563 0.000001 -0.000000 0.000000 0.000001 -0.000000 0.000000 0.000001 -0.000000 0.000000 4.561913 -10.021692 -6.882817 1.744091 -8.907735 -62.369770 0.000008 -14.397077 0.000023 3.302256 -10.997890 0.389222 0.760929 5.129655 -28.196539 0.737868 2.848110 -29.043549 0.840066 3.024601 -31.038384 -0.000000 -0.000000 -0.000002 -14.532223 3.965964 5.729350 16.019058 4.080613 18.962149 2.380957 -3.245605 6.971099 -0.000002 -0.000002 -0.000002 6.629420 3.511400 -16.327333 0.253872 1.707547 -16.912332 0.253875 1.707554 -16.912307 0.000001 -0.000000 0.000000 0.985018 5.510550 -32.525935 0.805204 2.965986 -30.371205 0.911483 3.140038 -32.366436 0.000001 -0.000002 -0.000002 -4.649411 14.578655 -19.697524 1.388116 3.787610 -40.242723 1.395859 3.796740 -40.359953 -0.000001 -0.000001 0.000002 6.487982 -0.279329 3.934788 -2.989254 1.370326 68.747896 -0.000002 20.547839 0.000025 3.842550 12.839044 1.078897 0.576936 -4.437079 27.534091 0.588534 -2.268073 29.090168 0.670012 -2.408563 31.086899 -0.000001 -0.000001 -0.000001 -15.527339 -1.811841 -5.060754 16.610965 -6.266662 -19.432832 4.824329 -2.429860 -8.643983 -0.000002 -0.000000 -0.000004 0.215188 -3.518760 15.373945 0.202558 -1.359924 16.942930 0.202560 -1.359927 16.942918 0.000002 0.000000 0.000000 0.751684 -4.742477 31.864967 0.642223 -2.361898 30.419111 0.726934 -2.500455 32.416136 -0.000004 0.000001 0.000000 -4.854684 -13.976206 19.228584 1.106768 -3.015880 40.296887 1.112940 -3.023129 40.414130 -0.000001 -0.000000 -0.000000 -20.704776 8.525452 13.661916 16.430321 5.142633 1.761414 -0.254837 1.393122 -13.194132 0.570935 -0.000000 -0.000000 -0.000000 0.000003 0.000000 -19.091451 -9.079026 -16.908190 12.329034 1.374289 -3.256668 1.733205 -0.062932 12.497689 -3.455723 -0.000003 -0.000006 0.000000 -0.000000 -0.000000 
0.013439 195.657379 0.739103 6.037075 0.782590 0.557672 0.312930 -0.510586 0.383368 0.637404 -1.145568 -0.167207 0.638794 -1.144830 -0.166990 2.400793 2.783937 -4.136497 6.000941 -0.154542 6.579881 0.000001 -0.000000 -0.000000 0.000001 -0.000000 -0.000000 0.000001 -0.000000 -0.000000 4.580447 -10.231636 -6.087021 0.944875 -8.829571 -62.372570 -0.000009 -14.920140 -0.000029 2.851376 -11.022017 0.044881 0.589413 4.789307 -26.038546 0.695611 2.770726 -28.181306 0.776590 2.916656 -29.813605 0.000001 0.000002 0.000001 -13.991789 3.548371 5.616545 16.019061 4.080608 18.962156 2.380956 -3.245616 6.971091 0.000002 -0.000002 0.000000 6.512179 3.079717 -14.969102 0.236236 1.648471 -16.310118 0.236248 1.648463 -16.310133 -0.000003 -0.000000 -0.000002 0.947699 5.455988 -30.248545 0.758580 2.885044 -29.457745 0.862059 3.060783 -31.452686 -0.000000 0.000002 -0.000001 -4.679635 14.339887 -18.041610 1.281405 3.658084 -38.599503 1.288903 3.667440 -38.716709 -0.000001 -0.000001 0.000002 6.401541 -0.199405 4.290283 -2.814592 1.377888 68.323694 -0.000008 20.458397 0.000050 3.574689 12.671768 0.844436 0.515344 -4.314932 25.850996 0.523778 -2.147635 27.409322 0.601086 -2.290451 29.405716 0.000003 -0.000000 0.000002 -14.781890 -2.196055 -4.019715 16.430095 -6.653740 -21.068705 4.307744 -2.513615 -8.697108 0.000002 0.000002 0.000004 0.197639 -3.453207 14.539900 0.183252 -1.294861 16.109508 0.183250 -1.294874 16.109491 -0.000000 -0.000000 0.000003 0.674354 -4.613905 30.018398 0.568348 -2.231424 28.575934 0.648562 -2.372634 30.572541 -0.000001 0.000002 0.000003 -4.655428 -13.136373 18.458591 0.980451 -2.860456 37.832985 0.985903 -2.867446 37.942001 -0.000001 0.000001 0.000001 -22.966149 7.755302 14.154464 19.902749 4.608090 1.880128 -0.997155 0.794030 -12.922255 0.381520 0.000013 -0.000000 -0.000000 0.000001 0.000000 -20.147234 -8.800747 -16.818484 14.463662 0.848091 -3.268219 0.632103 -0.184559 12.564270 -3.455727 0.000001 -0.000006 -0.000000 -0.000000 -0.000000 
0.143569 195.044861 0.727501 6.257809 1.504274 0.172170 0.369452 -0.468039 0.710445 0.746959 -1.189749 -0.177364 0.749565 -1.188131 -0.177256 2.209346 2.413687 -4.199333 4.976805 -2.105803 7.131095 0.000000 -0.000000 0.000000 0.000000 -0.000000 0.000000 0.000000 -0.000000 0.000000 4.588694 -10.490914 -5.042163 -0.091205 -8.927451 -62.634966 -0.000001 -15.232085 0.000009 2.753290 -10.892953 -0.119122 0.416080 4.389500 -23.574318 0.648716 2.681483 -27.195638 0.706879 2.791627 -28.413525 0.000001 -0.000003 -0.000001 -13.376587 3.068234 5.484963 16.019065 4.080611 18.962161 2.380954 -3.245612 6.971061 0.000002 0.000001 -0.000001 6.399631 2.580670 -13.418368 0.216847 1.580694 -15.621577 0.216847 1.580689 -15.621642 0.000001 0.000000 -0.000002 0.900635 5.395730 -27.644369 0.706875 2.791630 -28.413476 0.807114 2.969230 -30.408091 -0.000003 0.000001 0.000000 -4.708431 14.077244 -16.149310 1.164042 3.506318 -36.721348 1.171226 3.515908 -36.838485 -0.000001 0.000000 0.000000 6.310383 -0.087725 4.686292 -2.382521 1.348354 67.865081 -0.000001 20.663095 0.000003 2.997211 12.498077 0.671383 0.446856 -4.167483 23.851212 0.451457 -2.002101 25.411922 0.523737 -2.147526 27.407925 0.000002 -0.000001 0.000003 -13.895732 -2.639860 -2.770439 16.220217 -7.131008 -23.014669 3.693277 -2.611323 -8.760536 0.000000 -0.000001 0.000002 0.178032 -3.374970 13.548764 0.161543 -1.217197 15.119025 0.161538 -1.217212 15.119018 0.000001 -0.000000 0.000002 0.587912 -4.457964 27.824428 0.486079 -2.073362 26.385682 0.560822 -2.217540 28.381847 -0.000000 0.000000 0.000003 -4.389735 -12.148105 17.535128 0.839216 -2.668899 34.905429 0.843846 -2.675503 35.004737 0.000000 0.000001 -0.000001 -25.255934 6.591162 14.341516 23.495924 2.564035 2.215698 -1.752609 0.840274 -11.776056 -0.338956 0.000444 -0.203349 -0.000000 0.000001 0.000000 -21.143897 -8.561618 -16.758590 16.638650 0.137660 -3.286382 -0.507286 -0.312899 12.709327 -3.455720 0.000003 0.000003 -0.000000 -0.000000 0.000000 
0.356867 194.455795 0.689726 6.569416 1.968290 -0.132462 0.408708 -0.384380 0.909979 0.826792 -1.110329 -0.209583 0.829926 -1.107994 -0.209571 2.037469 1.981394 -4.201164 4.028186 -4.292083 7.699226 -0.000000 -0.000000 -0.000000 -0.000000 -0.000000 -0.000000 -0.000000 -0.000000 -0.000000 4.590522 -10.789033 -3.967923 -1.410760 -9.107571 -63.019601 -0.000002 -15.321745 -0.000011 2.918171 -10.860694 -0.290238 0.253718 3.936792 -20.859212 0.598801 2.582107 -26.108321 0.633541 2.651764 -26.869238 0.000002 0.000002 0.000001 -12.701387 2.531582 5.346729 16.019058 4.080613 18.962147 2.380958 -3.245620 6.971073 -0.000001 -0.000002 0.000000 6.302283 2.024362 -11.709911 0.196393 1.505649 -14.862024 0.196388 1.505655 -14.862123 -0.000003 -0.000002 0.000000 0.842990 5.331278 -24.770842 0.651813 2.687479 -27.261607 0.748462 2.867062 -29.255862 -0.000002 -0.000000 0.000002 -4.733939 13.800410 -14.062675 1.040458 3.334529 -34.649970 1.047270 3.344375 -34.767070 -0.000002 -0.000003 -0.000001 6.206623 0.067631 5.055465 -2.030178 1.485995 67.217073 -0.000007 20.545209 0.000031 2.448534 12.489691 0.843850 0.377053 -4.001360 21.634954 0.377270 -1.837946 23.198157 0.443865 -1.986047 25.193796 0.000005 -0.000000 0.000005 -12.906985 -3.123489 -1.377892 15.992768 -7.682095 -25.173682 3.011491 -2.717322 -8.831121 0.000002 -0.000001 0.000000 0.157886 -3.287849 12.450146 0.139052 -1.130678 14.021111 0.139043 -1.130682 14.021126 0.000001 -0.000000 -0.000001 0.499205 -4.281388 25.393115 0.402031 -1.894627 23.958217 0.470578 -2.041824 25.953986 0.000000 -0.000000 0.000002 -4.058800 -11.066271 16.499843 0.694348 -2.448438 31.661253 0.698137 -2.454557 31.749810 0.000001 -0.000000 -0.000004 -26.979915 5.480267 14.269920 26.208913 0.209027 2.694606 -2.975943 0.892939 -10.443064 -1.126065 0.004942 -0.686195 0.000000 0.000000 -0.000000 -22.165110 -8.300661 -16.741282 18.454169 -0.355319 -3.298641 -1.409959 -0.417380 12.874414 -3.455724 0.000004 0.000001 0.000000 -0.000001 -0.000000 
